<svg width="80" height="80" viewBox="0 0 80 80" fill="none" xmlns="http://www.w3.org/2000/svg">
<path d="M58.75 9.42498C58.75 9.42498 61.2624 5.72998 64.5599 5.17498C72.7074 3.82498 76.055 10.605 74.71 15.65C72.3 24.63 58.75 32.5 58.75 32.5C58.75 32.5 45.1999 24.63 42.7899 15.65C41.4449 10.605 44.7925 3.82498 52.94 5.17498C56.2125 5.72998 58.75 9.42498 58.75 9.42498ZM30.0149 37.235C30.0149 37.235 33.91 31.1975 38.98 30.2875C51.515 28.065 56.6574 39.155 54.5349 47.415C50.8149 62.14 29.99 75 29.99 75C29.99 75 9.16495 62.1175 5.44495 47.415C3.36995 39.155 8.53995 28.065 21.05 30.29C26.12 31.1975 30.0149 37.235 30.0149 37.235Z" fill="#D9CFAC"/>
</svg>
