<svg width="80" height="80" viewBox="0 0 80 80" fill="none" xmlns="http://www.w3.org/2000/svg">
<path d="M72.5279 8.71042C72.1896 8.33934 71.7105 8.13153 71.2087 8.13153H45.6319C45.1299 8.13153 44.6509 8.33934 44.3126 8.71042C43.9728 9.07971 43.8046 9.57457 43.8467 10.076L44.0563 12.5414H72.7843L72.9936 10.076C73.0358 9.57457 72.8683 9.07985 72.5279 8.71042Z" fill="#D9CFAC"/>
<path d="M47.9318 58.0578H68.9116L72.4949 15.9348H44.3462L47.9318 58.0578Z" fill="#D9CFAC"/>
<path d="M48.1309 67.4363C48.1309 69.8841 50.1148 71.8683 52.5624 71.8683H64.2807C66.7285 71.8683 68.7123 69.8841 68.7123 67.4363V61.7758H48.1309V67.4363Z" fill="#D9CFAC"/>
<path d="M41.1825 55.7778H18.5985L9.51864 59.8957C9.49849 59.9043 9.47656 59.9091 9.45654 59.9182V64.0339C9.45654 68.3618 12.965 71.8683 17.2908 71.8683H34.8195C39.1453 71.8683 42.6537 68.3618 42.6537 64.0339V57.2491C42.6539 56.4364 41.9953 55.7778 41.1825 55.7778Z" fill="#D9CFAC"/>
<path d="M34.4992 48.5687L25.3794 52.7046H37.1724C37.5476 52.7046 37.8947 52.5075 38.0916 52.1895C38.2859 51.8669 38.3012 51.4695 38.1315 51.134C37.5433 49.9891 36.5073 49.141 35.27 48.7876L34.4992 48.5687Z" fill="#D9CFAC"/>
<path d="M35.9724 42.4599C36.1093 42.0934 36.0962 41.6891 35.9348 41.3334L35.5416 40.4718C34.9627 39.1947 33.7036 38.4391 32.3869 38.4391C31.9096 38.4391 31.4235 38.5405 30.9598 38.7485L7.03264 49.5982C5.29186 50.3871 4.52078 52.4397 5.30927 54.1805L5.70049 55.0443C5.86197 55.3977 6.15766 55.6765 6.5227 55.8133C6.68788 55.875 6.86471 55.9061 7.03935 55.9061C7.24936 55.9061 7.45731 55.8621 7.64936 55.7759L35.2016 43.2821C35.5573 43.1208 35.8333 42.8266 35.9724 42.4599Z" fill="#D9CFAC"/>
</svg>
