<svg width="962" height="505" viewBox="0 0 962 505" fill="none" xmlns="http://www.w3.org/2000/svg">
<path d="M161.626 38.7037C182.655 6.70689 221.506 -1.51966 256.647 21.5758C304.281 52.8812 280.127 104.2 321.737 131.547C351.988 151.429 644.766 345.182 799.88 443.637C800.561 444.07 800.436 445.065 799.691 445.378L797.089 446.471C795.782 447.02 794.303 446.988 793.02 446.383L416.443 268.737C415.867 249.746 407.872 213.85 369.025 186.516C348.853 172.322 310.919 148.325 310.802 148.251C269.621 120.414 229.969 161.4 184.425 131.468C147.655 107.302 140.803 70.3885 161.626 38.7037ZM248.601 28.07C222.031 10.6077 187.557 17.9531 170.571 43.799C152.695 70.7432 160.518 104.203 187.088 121.666C215.33 140.226 253.673 135.761 270.659 109.915C287.645 84.0693 276.843 46.6307 248.601 28.07Z" fill="#D9CFAC"/>
<path fill-rule="evenodd" clip-rule="evenodd" d="M158.5 224.5C213 224.5 223.625 280.529 273.329 279.884C273.467 279.886 318.348 280.666 343.001 279.884C390.476 278.377 416.872 252.77 427.784 237.216L840.048 295.583C841.452 295.782 842.705 296.567 843.496 297.744L845.071 300.086C845.522 300.756 845.079 301.658 844.272 301.645C660.573 298.731 309.492 299.849 273.293 299.849C223.501 299.849 215.5 356.001 158.501 356.001C120.257 356.001 93.6783 332.667 89.1779 299.641C88.8547 297.269 87.0197 295.338 84.6375 295.102C72.4326 293.892 61.3537 293.597 49.5206 294.198C47.6 294.296 45.9808 295.559 44.8911 297.144C41.9767 301.381 36.8949 303.932 31.4206 303.356C23.4565 302.52 17.6788 295.385 18.5153 287.421C19.352 279.457 26.4866 273.678 34.4509 274.515C39.0481 274.998 42.9167 277.579 45.2052 281.208C46.2558 282.873 47.8773 284.223 49.842 284.36C61.4911 285.169 72.4352 285.092 84.4787 284.146C86.9171 283.955 88.8123 281.986 89.124 279.56C93.3152 246.939 118.451 224.5 158.5 224.5ZM155.342 234.154C123.548 234.155 98.6335 257.82 98.7741 290.154C98.7741 321.082 123.549 346.154 155.343 346.154C189.138 346.154 218.727 320.801 218.727 289.873C218.727 258.945 189.137 234.154 155.342 234.154Z" fill="#D9CFAC"/>
</svg>
