<svg width="24" height="24" viewBox="0 0 24 24" fill="none" xmlns="http://www.w3.org/2000/svg">
<path d="M11.4658 22.8359C11.6218 22.9427 11.8082 23 11.9994 23C12.1905 23 12.3769 22.9427 12.5329 22.8359L12 22.1081L12.5342 22.8359L12.544 22.8288L12.5698 22.8109L12.6683 22.742C12.7536 22.6825 12.8747 22.5957 13.0314 22.4815C14.8603 21.1478 16.5867 19.6876 18.1969 18.1125C19.6098 16.7235 21.0462 15.1002 22.1342 13.3783C23.2172 11.6659 24 9.78217 24 7.89374C24 5.65211 23.28 3.90044 22.0062 2.71125C20.7385 1.52919 19.0277 1 17.2308 1C15.1077 1 13.2332 1.9906 12 3.51752C10.7668 1.9906 8.89108 1 6.76923 1C2.97846 1 0 4.13827 0 7.89374C0 9.78217 0.784 11.6647 1.86585 13.3783C2.95385 15.1002 4.39015 16.7235 5.80308 18.1136C7.51976 19.7918 9.36814 21.3392 11.3317 22.742L11.4302 22.8109L11.456 22.8288L11.4658 22.8359Z" fill="#D9CFAC"/>
</svg>
