<svg width="82" height="82" viewBox="0 0 82 82" fill="none" xmlns="http://www.w3.org/2000/svg">
<path d="M43.1959 77.8811C118.012 28.881 63.8489 -12.2866 41.5254 9.42578L41 9.95507V78.5185C41.7735 78.5185 42.547 78.3061 43.1959 77.8811Z" fill="#272727"/>
<path d="M41.0001 9.95484C19.0194 -12.9407 -36.6064 28.4958 38.8034 77.8805C39.4525 78.3056 40.2263 78.5182 41.0001 78.5182V9.95484Z" fill="#D9CFAC"/>
<path d="M42.1357 32.4691L41.9806 29.0569L50.1124 20.6149H53.3474L46.5894 27.7939L44.994 29.5443L42.1357 32.4691ZM39.5654 36.1251V20.6149H42.4459V36.1251H39.5654ZM50.3783 36.1251L44.4401 29.0569L46.3456 26.9519L53.7462 36.1251H50.3783Z" fill="white"/>
<path d="M59.7356 27.0627H67.4464V29.4335H59.7356V27.0627ZM59.9571 33.7099H69.7165V36.1251H57.0767V20.6149H69.4063V23.03H59.9571V33.7099Z" fill="white"/>
<path d="M13.7068 36.1251V20.6149H16.5873V33.6878H26.2963V36.1251H13.7068Z" fill="white"/>
<path d="M34.4152 20.6149V23.0521V33.6883V36.1255H31.4468V33.6883L31.4468 23.0521V20.6149H34.4152Z" fill="white"/>
<path d="M21.3113 57.8362V42.3259H23.6822L30.4624 53.6484H29.2216L35.891 42.3259H38.2618L38.284 57.8362H35.5586L35.5365 46.6023H36.1126L30.4402 56.0636H29.1551L23.3941 46.6023H24.0589V57.8362H21.3113Z" fill="white"/>
<path d="M46.259 48.7738H53.9698V51.1446H46.259V48.7738ZM46.4806 55.421H56.24V57.8362H43.6001V42.3259H55.9297V44.7411H46.4806V55.421Z" fill="white"/>
</svg>
