<svg width="80" height="80" viewBox="0 0 80 80" fill="none" xmlns="http://www.w3.org/2000/svg">
<path d="M11.3867 73.3334C9.90445 73.3334 8.63667 72.8056 7.58333 71.75C6.53 70.6945 6.00222 69.4289 6 67.9534V12.05C6 10.5167 6.51444 9.23669 7.54333 8.21002C8.57222 7.18335 9.85333 6.66891 11.3867 6.66669H38.8733C40.3533 6.66669 41.62 7.19446 42.6733 8.25002C43.7267 9.30558 44.2544 10.5722 44.2567 12.05V22.77C45.0856 22.8589 45.8056 23.2034 46.4167 23.8034C47.0278 24.4011 47.3333 25.1211 47.3333 25.9634V31.86C47.3333 32.7022 47.0278 33.4222 46.4167 34.02C45.8056 34.6178 45.0856 34.9622 44.2567 35.0534V67.95C44.2567 69.43 43.7289 70.6967 42.6733 71.75C41.6178 72.8033 40.3511 73.3311 38.8733 73.3334H11.3867ZM17.95 69.1H32.3067C32.78 69.1 33.1767 68.9411 33.4967 68.6234C33.8144 68.3034 33.9733 67.9067 33.9733 67.4333C33.9733 66.96 33.8144 66.5645 33.4967 66.2467C33.1789 65.9289 32.7822 65.77 32.3067 65.77H17.95C17.4767 65.77 17.08 65.93 16.76 66.25C16.44 66.57 16.2811 66.9656 16.2833 67.4367C16.2856 67.9078 16.4444 68.3034 16.76 68.6234C17.0756 68.9434 17.4722 69.1034 17.95 69.1034" fill="#D9CFAC"/>
</svg>
