<svg width="684" height="188" viewBox="0 0 684 188" fill="none" xmlns="http://www.w3.org/2000/svg">
<path d="M31.635 141.736L0 41.4034H29.1576L47.8337 111.275L67.6532 41.4034H97.5731L117.393 111.275L135.688 41.4034H164.464L132.829 141.736H102.147L82.1367 73.9593L62.3172 141.736H31.635Z" fill="white"/>
<path d="M207.188 143.069C202.614 143.069 198.167 142.498 193.848 141.356C189.655 140.086 185.907 138.183 182.604 135.644C179.301 133.106 176.696 129.933 174.791 126.125C172.885 122.317 171.932 117.875 171.932 112.798C171.932 105.944 173.33 100.486 176.125 96.4247C178.92 92.2363 182.668 89.0632 187.368 86.9055C192.069 84.7478 197.469 83.2882 203.567 82.5266C209.792 81.7651 216.208 81.3843 222.815 81.3843H237.298C237.298 77.7035 236.6 74.467 235.202 71.6747C233.932 68.7554 231.962 66.5343 229.294 65.0112C226.626 63.3612 223.196 62.5362 219.003 62.5362C216.335 62.5362 213.731 62.917 211.19 63.6785C208.776 64.3131 206.743 65.265 205.092 66.5343C203.44 67.8035 202.36 69.4535 201.852 71.4843H174.791C175.553 65.8997 177.332 61.14 180.127 57.2054C182.922 53.1439 186.416 49.8438 190.608 47.3054C194.801 44.7669 199.374 42.9265 204.329 41.7842C209.411 40.515 214.62 39.8804 219.956 39.8804C234.567 39.8804 245.366 44.0688 252.354 52.4458C259.341 60.6958 262.835 72.4362 262.835 87.667V141.736H238.823L238.442 128.79C235.266 133.233 231.645 136.469 227.579 138.5C223.641 140.531 219.829 141.8 216.145 142.308C212.46 142.815 209.475 143.069 207.188 143.069ZM213.286 121.936C217.733 121.936 221.798 121.048 225.483 119.271C229.167 117.494 232.089 115.082 234.249 112.036C236.409 108.99 237.489 105.563 237.489 101.756V99.2805H219.194C216.526 99.2805 213.921 99.4074 211.38 99.6613C208.967 99.9151 206.743 100.423 204.71 101.184C202.805 101.819 201.28 102.898 200.137 104.421C198.993 105.944 198.422 107.975 198.422 110.513C198.422 113.052 199.057 115.209 200.327 116.986C201.725 118.636 203.567 119.906 205.854 120.794C208.141 121.556 210.618 121.936 213.286 121.936Z" fill="white"/>
<path d="M328.079 188C320.329 188 312.77 186.985 305.401 184.954C298.032 182.923 291.108 179.496 284.629 174.673L293.586 153.35C297.651 156.396 302.288 158.808 307.497 160.585C312.706 162.488 318.487 163.44 324.84 163.44C334.622 163.44 341.864 161.156 346.565 156.586C351.393 152.017 353.807 145.417 353.807 136.786V131.456C351.647 134.375 348.915 136.723 345.612 138.5C342.436 140.15 339.005 141.356 335.321 142.117C331.637 142.879 327.952 143.259 324.268 143.259C314.612 143.259 306.862 141.229 301.018 137.167C295.174 133.106 290.918 127.584 288.25 120.604C285.709 113.496 284.438 105.436 284.438 96.4247V41.4034H311.118V90.9036C311.118 94.2036 311.309 97.5036 311.69 100.804C312.071 104.104 312.961 107.15 314.358 109.942C315.756 112.734 317.852 115.019 320.647 116.796C323.442 118.446 327.19 119.271 331.891 119.271C337.989 119.271 342.563 117.811 345.612 114.892C348.661 111.846 350.694 108.038 351.71 103.469C352.854 98.8997 353.425 94.1401 353.425 89.1901V41.4034H380.106V127.267C380.106 136.406 379.216 144.719 377.438 152.208C375.786 159.696 372.927 166.106 368.862 171.436C364.923 176.767 359.587 180.829 352.854 183.621C346.247 186.54 337.989 188 328.079 188Z" fill="white"/>
<path d="M401.109 141.736V41.4034H426.074L427.408 53.0169C430.203 49.59 433.379 46.9246 436.936 45.0208C440.621 42.99 444.305 41.5938 447.99 40.8323C451.801 40.0707 455.231 39.69 458.28 39.69C467.936 39.69 475.432 41.7842 480.768 45.9727C486.231 50.1611 490.106 55.8092 492.393 62.917C494.807 69.8977 496.014 77.7035 496.014 86.3343V141.736H469.334V89.7613C469.334 86.7151 469.08 83.6689 468.571 80.6228C468.063 77.5766 467.11 74.7843 465.713 72.2458C464.442 69.7074 462.6 67.6766 460.186 66.1535C457.772 64.6304 454.596 63.8689 450.658 63.8689C445.576 63.8689 441.319 65.1381 437.889 67.6766C434.459 70.215 431.918 73.642 430.266 77.9574C428.615 82.2728 427.789 87.0324 427.789 92.2363V141.736H401.109Z" fill="white"/>
<path d="M562.041 143.069C547.304 143.069 535.933 139.325 527.929 131.836C520.052 124.221 516.113 112.798 516.113 97.5671V41.4034H542.793V95.6632C542.793 100.232 543.429 104.294 544.699 107.848C546.097 111.275 548.193 114.004 550.988 116.034C553.91 118.065 557.658 119.081 562.232 119.081C567.187 119.081 570.998 118.002 573.666 115.844C576.334 113.686 578.176 110.831 579.193 107.277C580.209 103.596 580.717 99.7248 580.717 95.6632V41.4034H607.207V97.5671C607.207 113.432 603.205 124.983 595.201 132.217C587.324 139.452 576.271 143.069 562.041 143.069Z" fill="white"/>
<path d="M673.519 141.736C665.133 141.736 658.082 140.721 652.365 138.69C646.775 136.659 642.519 133.233 639.597 128.409C636.802 123.459 635.404 116.732 635.404 108.229V65.2016H620.539V41.4034H635.404V14.5591H662.084V41.4034H684V65.2016H662.084V104.421C662.084 108.609 662.846 111.909 664.371 114.321C665.896 116.732 669.326 117.938 674.662 117.938H683.047V141.736H673.519Z" fill="white"/>
<path d="M607.208 0H516.114V23.7981H607.208V0Z" fill="white"/>
</svg>
